<svg width="32" height="32" viewBox="0 0 32 32" fill="none" xmlns="http://www.w3.org/2000/svg">
<path d="M22.0464 22.0464L21.6928 22.4L22.4 23.1071L22.7535 22.7535L22.0464 22.0464ZM28.7999 16L29.1535 16.3535L29.5071 16L29.1535 15.6464L28.7999 16ZM22.7535 9.24644L22.4 8.89289L21.6928 9.6L22.0464 9.95355L22.7535 9.24644ZM9.2464 22.7535L9.59995 23.1071L10.3071 22.4L9.9535 22.0464L9.2464 22.7535ZM3.19995 16L2.8464 15.6464L2.49284 16L2.8464 16.3535L3.19995 16ZM9.9535 9.95355L10.3071 9.6L9.59995 8.89289L9.2464 9.24644L9.9535 9.95355ZM22.7535 22.7535L29.1535 16.3535L28.4464 15.6464L22.0464 22.0464L22.7535 22.7535ZM29.1535 15.6464L22.7535 9.24644L22.0464 9.95355L28.4464 16.3535L29.1535 15.6464ZM9.9535 22.0464L3.5535 15.6464L2.8464 16.3535L9.2464 22.7535L9.9535 22.0464ZM3.5535 16.3535L9.9535 9.95355L9.2464 9.24644L2.8464 15.6464L3.5535 16.3535ZM17.6401 3.1178L13.3734 28.7178L14.3598 28.8822L18.6265 3.2822L17.6401 3.1178Z" fill="black"/>
</svg>
