<svg width="32" height="32" viewBox="0 0 32 32" fill="none" xmlns="http://www.w3.org/2000/svg">
<path d="M30.9333 23.4667V6.4C30.9333 5.22179 29.9782 4.26666 28.8 4.26666H3.19998C2.02178 4.26666 1.06665 5.22179 1.06665 6.4V23.4667C1.06665 24.6449 2.02178 25.6 3.19998 25.6L28.8 25.6C29.9782 25.6 30.9333 24.6449 30.9333 23.4667Z" stroke="black"/>
<path d="M20.9063 21.3333C19.7281 21.3333 18.7729 20.3782 18.7729 19.2C18.7729 18.0218 19.7281 17.0667 20.9063 17.0667C22.0845 17.0667 23.0396 18.0218 23.0396 19.2C23.0396 20.3782 22.0845 21.3333 20.9063 21.3333Z" stroke="black"/>
<path d="M28.8 4.26666C29.9782 4.26666 30.9333 5.22179 30.9333 6.4V23.4667C30.9333 24.6449 29.9782 25.6 28.8 25.6L3.19998 25.6C2.02178 25.6 1.06665 24.6449 1.06665 23.4667L1.06665 6.4C1.06665 5.22179 2.02178 4.26666 3.19998 4.26666L28.8 4.26666Z" stroke="black"/>
<path d="M13.6531 17.0667C14.8313 17.0667 15.7864 18.0218 15.7864 19.2C15.7864 20.3782 14.8313 21.3333 13.6531 21.3333C12.4749 21.3333 11.5198 20.3782 11.5198 19.2C11.5198 18.0218 12.4749 17.0667 13.6531 17.0667Z" stroke="black"/>
<path d="M6.40002 22.4V9.59998" stroke="black"/>
</svg>
