<svg width="24" height="25" viewBox="0 0 24 25" fill="none" xmlns="http://www.w3.org/2000/svg">
<path d="M7.5 2.49997C5.71 3.64997 4.5 5.67997 4.5 7.99997C4.5 10.32 5.71 12.35 7.53 13.5C4.46 13.5 2 11.04 2 7.99997C2 6.54128 2.57946 5.14233 3.61091 4.11088C4.64236 3.07943 6.04131 2.49997 7.5 2.49997V2.49997ZM19.07 3.99997L20.5 5.42997L4.93 21L3.5 19.57L19.07 3.99997ZM12.89 6.42997L11.41 5.49997L9.97 6.49997L10.39 4.79997L9 3.73997L10.75 3.61997L11.33 1.96997L12 3.59997L13.73 3.62997L12.38 4.75997L12.89 6.42997ZM9.59 10.04L8.43 9.30997L7.31 10.09L7.65 8.76997L6.56 7.93997L7.92 7.84997L8.37 6.55997L8.88 7.82997L10.24 7.85997L9.19 8.72997L9.59 10.04V10.04ZM19 14C19 15.4587 18.4205 16.8576 17.3891 17.8891C16.3576 18.9205 14.9587 19.5 13.5 19.5C12.28 19.5 11.15 19.1 10.24 18.43L17.93 10.74C18.6 11.65 19 12.78 19 14V14ZM14.6 20.58L17.37 19.43L17.13 22.78L14.6 20.58V20.58ZM18.93 17.88L20.08 15.11L22.28 17.65L18.93 17.88V17.88ZM20.08 12.92L18.94 10.14L22.28 10.38L20.08 12.92ZM9.63 19.43L12.4 20.58L9.87 22.77L9.63 19.43Z" fill="white"/>
</svg>
