<svg width="32" height="32" viewBox="0 0 32 32" fill="none" xmlns="http://www.w3.org/2000/svg">
<path d="M32 7.46668L5.33333 7.46667L0 7.46667M32 24.5333L18.1333 24.5333L2.71245e-07 24.5333" stroke="black"/>
<path d="M26.6666 24.5333C26.6666 22.1769 24.7564 20.2667 22.4 20.2667C20.0436 20.2667 18.1333 22.1769 18.1333 24.5333C18.1333 26.8897 20.0436 28.8 22.4 28.8C24.7564 28.8 26.6666 26.8897 26.6666 24.5333Z" fill="white" stroke="black"/>
<path d="M13.8667 7.46668C13.8667 5.11026 11.9565 3.20001 9.60004 3.20001C7.24363 3.20001 5.33337 5.11026 5.33337 7.46668C5.33337 9.82309 7.24363 11.7333 9.60004 11.7333C11.9565 11.7333 13.8667 9.82309 13.8667 7.46668Z" fill="white" stroke="black"/>
</svg>
