<svg width="221" height="44" viewBox="0 0 221 44" fill="none" xmlns="http://www.w3.org/2000/svg">
<path d="M47.1389 37.2526C47.09 37.2309 42.252 35.0494 36.0203 31.0079C35.8167 30.6453 35.593 30.289 35.3421 29.9438C35.1568 29.6887 34.9583 29.4401 34.7476 29.1989C35.0598 29.1275 35.3664 29.0431 35.6662 28.9455C41.6158 27.0126 44.5331 20.1652 44.6543 19.8745C44.9314 19.2111 44.6825 18.4451 44.0684 18.0712C43.8342 17.9285 38.9605 15.0107 33.7753 15.5367C36.3777 12.1852 38.4585 8.74982 39.9863 5.27606C40.0001 5.24482 40.0129 5.213 40.0241 5.18079C40.9246 2.66651 40.8142 1.19671 39.6772 0.555047C38.2282 -0.262995 36.7543 1.05449 34.5404 3.77094C34.0328 4.39398 34.1261 5.31059 34.7494 5.81838C35.2572 6.23225 35.9601 6.24622 36.4772 5.90045C34.9634 8.92348 32.9953 11.9176 30.6004 14.8492C30.2884 8.85848 24.9983 4.24632 24.7666 4.04744C24.2212 3.57905 23.4155 3.57905 22.8703 4.04744C22.6439 4.24206 17.5901 8.65126 17.0681 14.442C14.822 11.6407 12.9657 8.78378 11.5217 5.90026C12.0392 6.24719 12.7422 6.23264 13.2502 5.81857C13.8732 5.31079 13.9667 4.39418 13.4591 3.77114C11.2458 1.05429 9.77175 -0.261637 8.32252 0.555047C7.18549 1.19691 7.07489 2.6667 7.97501 5.18098C7.98645 5.21319 7.99926 5.24501 8.01304 5.27625C9.54861 8.76709 11.642 12.2189 14.2626 15.5866C8.93062 14.8607 3.80913 17.9254 3.56891 18.0715C2.9548 18.4456 2.70586 19.2119 2.98294 19.8753C3.10421 20.1657 6.02226 27.013 11.9719 28.9457C12.2719 29.0433 12.5782 29.1277 12.8906 29.1991C12.6799 29.4403 12.4818 29.6887 12.2963 29.944C11.9633 30.4019 11.6758 30.8783 11.4253 31.3655C5.47761 35.1687 0.906982 37.2321 0.860608 37.2528C0.127359 37.5813 -0.200944 38.4421 0.127359 39.1755C0.369318 39.7159 0.900191 40.0366 1.45648 40.0366C1.65517 40.0366 1.85716 39.9957 2.05042 39.9093C2.21496 39.8356 5.46364 38.3711 10.1121 35.5981C9.57927 39.1883 10.3082 42.3654 10.3558 42.5658C10.5126 43.2263 11.1024 43.6854 11.7709 43.6854C11.8103 43.6854 11.85 43.6839 11.89 43.6808C12.2038 43.6551 19.617 42.996 23.2945 37.9343C23.4798 37.6793 23.6546 37.4141 23.8189 37.1391C23.9833 37.4141 24.1581 37.6791 24.3434 37.9343C28.0213 42.9964 35.4345 43.6551 35.7482 43.6808C36.4675 43.7366 37.1168 43.2653 37.2825 42.566C37.331 42.3609 38.0898 39.0457 37.4872 35.3581C42.3444 38.2845 45.776 39.8319 45.9497 39.9095C46.1428 39.9959 46.3448 40.0368 46.5436 40.0368C47.0995 40.0368 47.6306 39.7163 47.8728 39.1757C48.2011 38.4421 47.8726 37.5809 47.1389 37.2526ZM41.3719 19.9469C40.375 21.7518 38.142 25.0812 34.7672 26.1775C33.6855 26.5288 32.467 26.6505 31.1481 26.5393C30.4731 26.4852 29.8504 26.8973 29.6418 27.5398C29.593 27.6901 29.5708 27.844 29.5716 27.9957L29.2709 26.2428L32.6113 22.987C33.0079 22.6003 33.1505 22.0219 32.9794 21.4951C32.8083 20.9681 32.3529 20.5843 31.8045 20.5047L29.7367 20.2042C30.5845 19.5545 31.4656 19.0762 32.3645 18.7842C35.7238 17.693 39.5005 19.0753 41.3719 19.9469ZM26.2729 25.9809L26.6922 28.4265L24.4961 27.2718C24.284 27.1604 24.0516 27.1047 23.8189 27.1047C23.5863 27.1047 23.3536 27.1604 23.1418 27.2718L20.9461 28.4265L21.3654 25.9809C21.4463 25.5088 21.2897 25.0272 20.9469 24.6927L19.1701 22.961L21.6254 22.6041C22.0994 22.5355 22.5092 22.2374 22.7211 21.808L23.8189 19.5831L24.917 21.808C25.129 22.2376 25.5386 22.5353 26.0127 22.6041L28.468 22.961L26.6912 24.6927C26.3483 25.0272 26.1918 25.5088 26.2729 25.9809ZM23.8211 7.19213C25.2295 8.69802 27.7056 11.8507 27.7056 15.3997C27.7056 16.5373 27.4448 17.7333 26.9308 18.9548C26.9009 19.0256 26.8788 19.098 26.861 19.1704L25.124 15.6506C24.8787 15.1539 24.3729 14.8393 23.8189 14.8393C23.265 14.8393 22.7591 15.1539 22.5139 15.6506L20.7767 19.1711C20.7552 19.0828 20.7274 18.9957 20.6892 18.9121C20.1868 17.7054 19.9323 16.5239 19.9323 15.3997C19.9323 11.8672 22.4137 8.70267 23.8211 7.19213ZM12.871 26.1776C9.51194 25.0864 7.26912 21.7485 6.26713 19.9428C8.13469 19.0689 11.8982 17.6879 15.2735 18.7846C16.1727 19.0768 17.054 19.5547 17.9017 20.2042L15.8335 20.5047C15.2854 20.5843 14.8298 20.9683 14.6587 21.4951C14.4875 22.0219 14.6303 22.6001 15.0267 22.987L18.3672 26.2428L18.068 27.988C18.0674 27.2563 17.5228 26.636 16.7938 26.5448C16.683 26.5314 16.572 26.5304 16.4624 26.5413C15.1532 26.6495 13.9448 26.5267 12.871 26.1776ZM34.6652 40.5805C32.6406 40.1899 28.7842 39.095 26.698 36.2233C26.0387 35.3156 25.5509 34.2135 25.2482 32.9469C25.1451 32.4166 24.7491 31.9664 24.194 31.8184C23.434 31.6168 22.6507 32.0543 22.4248 32.8074C22.4145 32.8417 22.4054 32.876 22.3978 32.911C22.0953 34.1931 21.6048 35.3075 20.9395 36.2233C18.8643 39.0797 15 40.1816 12.9721 40.5772C12.7214 38.5253 12.5755 34.51 14.6505 31.6544C15.31 30.7463 16.2086 29.9413 17.3218 29.2612C17.6316 29.0883 17.8678 28.8047 17.9855 28.4665L17.5783 30.8408C17.4845 31.3868 17.7092 31.9385 18.1573 32.2643C18.6055 32.5895 19.1996 32.6323 19.6897 32.3749L23.8182 30.204L27.947 32.3749C28.16 32.4868 28.3925 32.5419 28.624 32.5419H28.6282C29.4319 32.5417 30.0831 31.8904 30.0831 31.0867C30.0831 30.9646 30.0681 30.8463 30.0398 30.733L29.6512 28.4674C29.7598 28.779 29.9729 29.054 30.2715 29.2346C31.4044 29.9201 32.3179 30.7343 32.9866 31.6544C35.0637 34.5121 34.916 38.5311 34.6652 40.5805Z" fill="#095D90"/>
<path d="M63.6881 14.28V19.88H71.2081V23.432H63.6881V29.352H72.1681V33H59.2081V10.632H72.1681V14.28H63.6881Z" fill="#095D90"/>
<path d="M81.9993 29.448H89.3593V33H77.5193V10.664H81.9993V29.448Z" fill="#095D90"/>
<path d="M97.9668 14.28V19.88H105.487V23.432H97.9668V29.352H106.447V33H93.4868V10.632H106.447V14.28H97.9668Z" fill="#095D90"/>
<path d="M136.15 10.664V33H131.67V18.472L125.686 33H122.294L116.278 18.472V33H111.798V10.664H116.886L123.99 27.272L131.094 10.664H136.15Z" fill="#095D90"/>
<path d="M146.339 14.28V19.88H153.859V23.432H146.339V29.352H154.819V33H141.859V10.632H154.819V14.28H146.339Z" fill="#095D90"/>
<path d="M179.275 33H174.795L164.651 17.672V33H160.171V10.632H164.651L174.795 25.992V10.632H179.275V33Z" fill="#095D90"/>
<path d="M200.182 10.664V14.28H194.23V33H189.75V14.28H183.798V10.664H200.182Z" fill="#095D90"/>
<path d="M212.443 33.224C210.885 33.224 209.477 32.9573 208.219 32.424C206.981 31.8907 206 31.1227 205.275 30.12C204.549 29.1173 204.176 27.9333 204.155 26.568H208.955C209.019 27.4853 209.339 28.2107 209.915 28.744C210.512 29.2773 211.323 29.544 212.347 29.544C213.392 29.544 214.213 29.2987 214.811 28.808C215.408 28.296 215.707 27.6347 215.707 26.824C215.707 26.1627 215.504 25.6187 215.099 25.192C214.693 24.7653 214.181 24.4347 213.563 24.2C212.965 23.944 212.133 23.6667 211.067 23.368C209.616 22.9413 208.432 22.5253 207.515 22.12C206.619 21.6933 205.84 21.064 205.179 20.232C204.539 19.3787 204.219 18.248 204.219 16.84C204.219 15.5173 204.549 14.3653 205.211 13.384C205.872 12.4027 206.8 11.656 207.995 11.144C209.189 10.6107 210.555 10.344 212.091 10.344C214.395 10.344 216.261 10.9093 217.691 12.04C219.141 13.1493 219.941 14.7067 220.091 16.712H215.163C215.12 15.944 214.789 15.3147 214.171 14.824C213.573 14.312 212.773 14.056 211.771 14.056C210.896 14.056 210.192 14.28 209.659 14.728C209.147 15.176 208.891 15.8267 208.891 16.68C208.891 17.2773 209.083 17.7787 209.467 18.184C209.872 18.568 210.363 18.888 210.939 19.144C211.536 19.3787 212.368 19.656 213.435 19.976C214.885 20.4027 216.069 20.8293 216.987 21.256C217.904 21.6827 218.693 22.3227 219.355 23.176C220.016 24.0293 220.347 25.1493 220.347 26.536C220.347 27.7307 220.037 28.84 219.419 29.864C218.8 30.888 217.893 31.7093 216.699 32.328C215.504 32.9253 214.085 33.224 212.443 33.224Z" fill="#095D90"/>
</svg>
