<svg width="24" height="25" viewBox="0 0 24 25" fill="none" xmlns="http://www.w3.org/2000/svg">
<path d="M21.257 11.462C21.731 12.082 21.731 12.919 21.257 13.538C19.764 15.487 16.182 19.5 12 19.5C7.81801 19.5 4.23601 15.487 2.74301 13.538C2.51239 13.2411 2.38721 12.8759 2.38721 12.5C2.38721 12.1241 2.51239 11.7589 2.74301 11.462C4.23601 9.513 7.81801 5.5 12 5.5C16.182 5.5 19.764 9.513 21.257 11.462V11.462Z" stroke="white" stroke-width="2" stroke-linecap="round" stroke-linejoin="round"/>
<path d="M12 15.5C13.6569 15.5 15 14.1569 15 12.5C15 10.8431 13.6569 9.5 12 9.5C10.3431 9.5 9 10.8431 9 12.5C9 14.1569 10.3431 15.5 12 15.5Z" stroke="white" stroke-width="2" stroke-linecap="round" stroke-linejoin="round"/>
</svg>
