<svg width="81" height="48" viewBox="0 0 81 48" fill="none" xmlns="http://www.w3.org/2000/svg">
<path d="M14.8508 47.2045H25.5912V28.3757L14.8508 22.2763V47.2045Z" fill="#095D90"/>
<path d="M40.442 9.54696V0.795578H29.6735L33.0166 9.54696H40.442Z" fill="#095D90"/>
<path d="M0 9.54696H14.8508L23.4905 0.795578H0V9.54696Z" fill="#095D90"/>
<path d="M25.5912 9.54696H33.0166L29.6735 0.795578L25.5912 9.54696Z" fill="#095D90"/>
<path fill-rule="evenodd" clip-rule="evenodd" d="M71.9523 46.0773C68.991 47.3591 65.3888 48 61.1457 48L61.212 39.3812C64.2617 39.3812 66.5159 38.9392 67.9744 38.0552C69.433 37.1271 70.1623 35.9116 70.1623 34.4088C70.1623 33.3039 69.7203 32.3978 68.8363 31.6906C67.9966 30.9392 66.8916 30.3425 65.5214 29.9006C64.1954 29.4586 62.3833 28.9724 60.0849 28.442C56.549 27.6022 53.654 26.7624 51.3999 25.9227C49.1457 25.0829 47.201 23.7348 45.5656 21.8785C43.9744 20.0221 43.1789 17.547 43.1789 14.453L53.8529 13.9227C53.8529 15.5138 54.6706 16.7072 56.3059 17.5028C57.9855 18.2541 60.5269 19.0055 63.9302 19.7569C67.4662 20.5967 70.3612 21.4365 72.6153 22.2762C74.8695 23.116 76.7921 24.442 78.3833 26.2541C80.0186 28.0663 80.8363 30.5193 80.8363 33.6133C80.8363 36.2652 80.0849 38.6961 78.5822 40.9061C77.1236 43.0718 74.9137 44.7956 71.9523 46.0773ZM62.6706 8.61878C66.9579 8.61878 71.2452 9.83425 75.5325 12.2652L78.8474 4.1105C76.7258 2.78453 74.2507 1.76796 71.422 1.06077C68.5932 0.353591 65.6982 0 62.7369 0C58.4938 0 54.8916 0.640884 51.9303 1.92265L62.6706 8.61878ZM50.4717 46.5414C47.0684 45.5249 44.328 44.221 42.2507 42.6298L45.8971 34.5414C47.886 36 50.2507 37.1713 52.991 38.0552L50.4717 46.5414Z" fill="#095D90"/>
</svg>
