<svg width="32" height="32" viewBox="0 0 32 32" fill="none" xmlns="http://www.w3.org/2000/svg">
<path d="M7.46671 5.33334C8.64491 5.33334 9.60004 6.28847 9.60004 7.46667C9.60004 8.64488 8.64491 9.60001 7.46671 9.60001C6.2885 9.60001 5.33337 8.64488 5.33337 7.46667C5.33337 6.28847 6.2885 5.33334 7.46671 5.33334Z" stroke="black"/>
<path d="M24.5334 26.6667C23.3552 26.6667 22.4 25.7115 22.4 24.5333C22.4 23.3551 23.3552 22.4 24.5334 22.4C25.7116 22.4 26.6667 23.3551 26.6667 24.5333C26.6667 25.7115 25.7116 26.6667 24.5334 26.6667Z" stroke="black"/>
<path d="M7.46665 30.9333H24.5333C28.0679 30.9333 30.9333 28.068 30.9333 24.5333C30.9333 20.9987 28.0679 18.1333 24.5333 18.1333L7.46665 18.1333C3.93203 18.1333 1.06665 20.9987 1.06665 24.5333C1.06665 28.068 3.93203 30.9333 7.46665 30.9333Z" stroke="black"/>
<path d="M24.5333 1.06668H7.46665C3.93203 1.06668 1.06665 3.93206 1.06665 7.46668C1.06665 11.0013 3.93203 13.8667 7.46665 13.8667H24.5333C28.0679 13.8667 30.9333 11.0013 30.9333 7.46668C30.9333 3.93206 28.0679 1.06668 24.5333 1.06668Z" stroke="black"/>
</svg>
