<svg width="32" height="29" viewBox="0 0 32 29" fill="none" xmlns="http://www.w3.org/2000/svg">
<style>
path{
    fill:hsl(203, 88%, 30%);
}
@media (prefers-color-scheme:dark){
    path{
        fill:hsl(0,100%,100%);
    }
}
</style>
<path d="M31.4259 24.6253C31.3933 24.6108 28.168 23.1565 24.0135 20.4622C23.8778 20.2204 23.7286 19.9829 23.5614 19.7528C23.4379 19.5827 23.3055 19.417 23.165 19.2562C23.3732 19.2086 23.5776 19.1523 23.7774 19.0873C27.7438 17.7986 29.6887 13.2337 29.7695 13.0399C29.9542 12.5977 29.7883 12.087 29.3789 11.8377C29.2227 11.7426 25.9736 9.79738 22.5168 10.1481C24.2518 7.91372 25.639 5.62349 26.6575 3.30765C26.6667 3.28682 26.6752 3.26561 26.6827 3.24413C27.2831 1.56795 27.2094 0.588091 26.4514 0.160314C25.4854 -0.385046 24.5028 0.493274 23.0269 2.30424C22.6885 2.7196 22.7507 3.33067 23.1662 3.6692C23.5047 3.94511 23.9734 3.95442 24.3181 3.72391C23.3089 5.73926 21.9968 7.73534 20.4002 9.68976C20.1922 5.69593 16.6655 2.62116 16.511 2.48857C16.1474 2.17631 15.6103 2.17631 15.2468 2.48857C15.0959 2.61832 11.7267 5.55778 11.3787 9.41824C9.88133 7.55075 8.6438 5.64613 7.68114 3.72378C8.02613 3.95507 8.49478 3.94537 8.83343 3.66932C9.24879 3.3308 9.31114 2.71973 8.97275 2.30437C7.4972 0.493144 6.51449 -0.384141 5.54834 0.160314C4.79032 0.58822 4.71658 1.56808 5.31666 3.24426C5.32429 3.26574 5.33283 3.28695 5.34202 3.30778C6.36573 5.635 7.76134 7.93623 9.5084 10.1813C5.95373 9.69739 2.53941 11.7406 2.37927 11.838C1.96986 12.0874 1.8039 12.5982 1.98862 13.0404C2.06947 13.2341 4.01483 17.7989 7.98124 19.0874C8.18122 19.1525 8.38548 19.2087 8.59374 19.2563C8.45326 19.4171 8.32119 19.5827 8.19752 19.7529C7.97555 20.0582 7.78385 20.3758 7.61685 20.7006C3.65174 23.2361 0.604654 24.6116 0.573738 24.6255C0.0849058 24.8445 -0.133963 25.4183 0.0849058 25.9072C0.246211 26.2675 0.600126 26.4813 0.970986 26.4813C1.10345 26.4813 1.2381 26.454 1.36694 26.3965C1.47663 26.3473 3.64242 25.3709 6.74138 23.5223C6.38617 25.9158 6.87215 28.0338 6.90384 28.1675C7.00836 28.6078 7.4016 28.9138 7.84723 28.9138C7.87349 28.9138 7.90001 28.9128 7.92665 28.9107C8.13582 28.8937 13.078 28.4542 15.5296 25.0798C15.6531 24.9098 15.7697 24.733 15.8793 24.5497C15.9888 24.733 16.1054 24.9097 16.2289 25.0798C18.6808 28.4545 23.623 28.8937 23.8321 28.9107C24.3116 28.948 24.7445 28.6338 24.8549 28.1676C24.8873 28.0309 25.3932 25.8207 24.9914 23.3623C28.2295 25.3132 30.5173 26.3449 30.6331 26.3966C30.7618 26.4542 30.8965 26.4814 31.029 26.4814C31.3996 26.4814 31.7537 26.2678 31.9151 25.9074C32.134 25.4183 31.915 24.8442 31.4259 24.6253ZM27.5812 13.0882C26.9166 14.2914 25.428 16.511 23.1781 17.2419C22.457 17.4761 21.6446 17.5573 20.7654 17.4831C20.3154 17.447 19.9003 17.7218 19.7612 18.1501C19.7286 18.2503 19.7139 18.3529 19.7144 18.4541L19.5139 17.2855L21.7408 15.1149C22.0052 14.8571 22.1003 14.4715 21.9862 14.1203C21.8721 13.769 21.5685 13.5131 21.203 13.4601L19.8245 13.2597C20.3896 12.8266 20.977 12.5078 21.5763 12.3131C23.8158 11.5856 26.3336 12.5071 27.5812 13.0882ZM17.5152 17.1109L17.7947 18.7412L16.3307 17.9714C16.1893 17.8972 16.0344 17.8601 15.8793 17.8601C15.7242 17.8601 15.5691 17.8972 15.4278 17.9714L13.964 18.7412L14.2436 17.1109C14.2975 16.7961 14.1931 16.4751 13.9645 16.2521L12.78 15.0976L14.4169 14.8597C14.7329 14.8139 15.0061 14.6152 15.1474 14.3289L15.8793 12.8456L16.6113 14.3289C16.7527 14.6153 17.0257 14.8138 17.3417 14.8597L18.9786 15.0976L17.7941 16.2521C17.5655 16.4751 17.4611 16.7961 17.5152 17.1109ZM15.8807 4.58503C16.8197 5.58895 18.4704 7.69071 18.4704 10.0567C18.4704 10.8151 18.2965 11.6125 17.9539 12.4268C17.9339 12.474 17.9192 12.5222 17.9073 12.5705L16.7493 10.224C16.5858 9.89285 16.2486 9.68316 15.8793 9.68316C15.51 9.68316 15.1727 9.89285 15.0092 10.224L13.8511 12.571C13.8367 12.5122 13.8182 12.4541 13.7928 12.3983C13.4579 11.5939 13.2882 10.8062 13.2882 10.0567C13.2882 7.70171 14.9425 5.59206 15.8807 4.58503ZM8.58067 17.242C6.34128 16.5145 4.84607 14.2892 4.17808 13.0855C5.42312 12.5028 7.93209 11.5822 10.1823 12.3133C10.7818 12.5081 11.3693 12.8267 11.9345 13.2597L10.5557 13.4601C10.1902 13.5131 9.88651 13.7691 9.77242 14.1203C9.65833 14.4715 9.75353 14.857 10.0178 15.1149L12.2448 17.2855L12.0453 18.4489C12.0449 17.9611 11.6818 17.5476 11.1958 17.4868C11.122 17.4778 11.048 17.4772 10.9749 17.4844C10.1021 17.5566 9.29652 17.4747 8.58067 17.242ZM23.1101 26.8439C21.7604 26.5835 19.1894 25.8536 17.7986 23.9391C17.3591 23.334 17.0339 22.5993 16.8321 21.7548C16.7634 21.4013 16.4994 21.1012 16.1293 21.0025C15.6226 20.8681 15.1004 21.1598 14.9498 21.6618C14.943 21.6847 14.9369 21.7076 14.9319 21.7309C14.7302 22.5857 14.4032 23.3286 13.9596 23.9391C12.5762 25.8433 9.99995 26.5779 8.64807 26.8417C8.48094 25.4738 8.38366 22.7969 9.76698 20.8932C10.2067 20.2878 10.8057 19.7511 11.5478 19.2977C11.7544 19.1825 11.9118 18.9934 11.9903 18.7679L11.7188 20.3508C11.6563 20.7148 11.8061 21.0826 12.1048 21.2998C12.4036 21.5165 12.7997 21.5451 13.1265 21.3735L15.8787 19.9263L18.6313 21.3735C18.7733 21.4481 18.9283 21.4849 19.0826 21.4849H19.0854C19.6212 21.4847 20.0554 21.0505 20.0554 20.5147C20.0554 20.4333 20.0454 20.3544 20.0265 20.2789L19.7674 18.7685C19.8398 18.9763 19.9819 19.1596 20.181 19.28C20.9363 19.737 21.5453 20.2798 21.991 20.8932C23.3758 22.7983 23.2773 25.4777 23.1101 26.8439Z" fill="#095D90"/>

</svg>
