<svg width="32" height="32" viewBox="0 0 32 32" fill="none" xmlns="http://www.w3.org/2000/svg">
<path d="M11.7332 21.3333V18.1333M11.7332 18.1333V7.46665C11.7332 6.28844 12.6883 5.33331 13.8666 5.33331C15.0448 5.33331 15.9999 6.28844 15.9999 7.46665V16H23.1528C25.0934 16 26.6666 17.5731 26.6666 19.5137V21.3333C26.6666 26.6352 22.3685 30.9333 17.0666 30.9333H15.9999C11.2871 30.9333 7.46655 27.1128 7.46655 22.4C7.46655 20.0436 9.3768 18.1333 11.7332 18.1333Z" stroke="black"/>
<path d="M19.2 11.7333H23.4666C26.4121 11.7333 28.7999 9.3455 28.7999 6.39998C28.7999 3.45447 26.4121 1.06665 23.4666 1.06665H8.53328C5.58777 1.06665 3.19995 3.45447 3.19995 6.39998C3.19995 9.3455 5.58777 11.7333 8.53328 11.7333" stroke="black"/>
</svg>
