<svg width="32" height="32" viewBox="0 0 32 32" fill="none" xmlns="http://www.w3.org/2000/svg">
<path d="M11.1676 4.35182C11.1563 3.85022 11.2453 3.3514 11.4294 2.88466C11.6134 2.41792 11.8889 1.99266 12.2396 1.63385C12.5903 1.27504 13.0092 0.989907 13.4716 0.795198C13.934 0.600489 14.4307 0.500126 14.9324 0.5C15.4341 0.499875 15.9308 0.59999 16.3933 0.794467C16.8558 0.988945 17.2748 1.27387 17.6257 1.6325C17.9766 1.99114 18.2523 2.41626 18.4366 2.88291C18.6209 3.34956 18.7102 3.84833 18.6991 4.34994C18.6773 5.3341 18.2711 6.27063 17.5675 6.95905C16.8639 7.64748 15.9187 8.03309 14.9343 8.03333C13.9499 8.03358 13.0045 7.64844 12.3005 6.96037C11.5965 6.2723 11.1899 5.33597 11.1676 4.35182ZM27.2333 7.46667C27.2333 8.18275 26.9489 8.86951 26.4425 9.37586C25.9362 9.8822 25.2494 10.1667 24.5333 10.1667C23.8173 10.1667 23.1305 9.8822 22.6241 9.37586C22.1178 8.86951 21.8333 8.18275 21.8333 7.46667C21.8333 6.75058 22.1178 6.06383 22.6241 5.55748C23.1305 5.05113 23.8173 4.76667 24.5333 4.76667C25.2494 4.76667 25.9362 5.05113 26.4425 5.55748C26.9489 6.06383 27.2333 6.75058 27.2333 7.46667ZM26.1 16C26.1 15.2839 26.3845 14.5972 26.8908 14.0908C27.3972 13.5845 28.0839 13.3 28.8 13.3C29.5161 13.3 30.2028 13.5845 30.7092 14.0908C31.2155 14.5972 31.5 15.2839 31.5 16C31.5 16.7161 31.2155 17.4028 30.7092 17.9092C30.2028 18.4155 29.5161 18.7 28.8 18.7C28.0839 18.7 27.3972 18.4155 26.8908 17.9092C26.3845 17.4028 26.1 16.7161 26.1 16ZM21.8342 24.6034C21.8249 24.243 21.8878 23.8845 22.0192 23.5488C22.1507 23.2132 22.348 22.9072 22.5995 22.6491C22.8511 22.3909 23.1518 22.1857 23.4839 22.0456C23.8161 21.9055 24.1729 21.8333 24.5333 21.8333C24.8938 21.8333 25.2506 21.9055 25.5827 22.0456C25.9149 22.1857 26.2156 22.3909 26.4671 22.6491C26.7187 22.9072 26.916 23.2132 27.0474 23.5488C27.1789 23.8845 27.2418 24.243 27.2324 24.6034C27.2142 25.3071 26.9218 25.9759 26.4176 26.4671C25.9134 26.9584 25.2373 27.2333 24.5333 27.2333C23.8294 27.2333 23.1533 26.9584 22.6491 26.4671C22.1449 25.9759 21.8525 25.3071 21.8342 24.6034ZM13.3 28.799C13.3001 28.4444 13.3701 28.0934 13.5059 27.7658C13.6417 27.4383 13.8407 27.1407 14.0915 26.8901C14.3423 26.6395 14.6401 26.4407 14.9677 26.3051C15.2953 26.1696 15.6464 26.0999 16.001 26.1C16.3556 26.1001 16.7066 26.1701 17.0342 26.3059C17.3617 26.4417 17.6593 26.6407 17.9099 26.8915C18.1605 27.1423 18.3593 27.4401 18.4949 27.7677C18.6304 28.0953 18.7001 28.4464 18.7 28.801C18.6997 29.5171 18.415 30.2037 17.9085 30.7099C17.4019 31.2161 16.7151 31.5003 15.999 31.5C15.2829 31.4997 14.5963 31.215 14.0901 30.7085C13.5839 30.2019 13.2997 29.5151 13.3 28.799ZM4.76734 25.6468C4.76108 25.4284 4.79869 25.211 4.87792 25.0075C4.95716 24.8039 5.07642 24.6184 5.22864 24.4617C5.38087 24.3051 5.56297 24.1805 5.76417 24.0955C5.96536 24.0105 6.18157 23.9667 6.4 23.9667C6.61843 23.9667 6.83464 24.0105 7.03583 24.0955C7.23703 24.1805 7.41913 24.3051 7.57136 24.4617C7.72358 24.6184 7.84284 24.8039 7.92208 25.0075C8.00131 25.211 8.03892 25.4284 8.03266 25.6468C8.0205 26.0717 7.84315 26.4751 7.53829 26.7714C7.23343 27.0676 6.82509 27.2333 6.4 27.2333C5.97491 27.2333 5.56657 27.0676 5.26171 26.7714C4.95685 26.4751 4.77951 26.0717 4.76734 25.6468ZM0.50074 17.1158C0.494161 16.8973 0.531521 16.6797 0.610606 16.4758C0.689692 16.272 0.808893 16.0861 0.961143 15.9292C1.11339 15.7723 1.2956 15.6476 1.49695 15.5624C1.6983 15.4772 1.9147 15.4333 2.13333 15.4333C2.35196 15.4333 2.56837 15.4772 2.76972 15.5624C2.97107 15.6476 3.15327 15.7723 3.30552 15.9292C3.45777 16.0861 3.57698 16.272 3.65606 16.4758C3.73515 16.6797 3.77251 16.8973 3.76593 17.1158C3.75315 17.5403 3.57554 17.9431 3.27076 18.2389C2.96599 18.5346 2.55801 18.7 2.13333 18.7C1.70866 18.7 1.30068 18.5346 0.995903 18.2389C0.691127 17.9431 0.51352 17.5403 0.50074 17.1158ZM4.76667 8.53333C4.76667 8.10015 4.93875 7.6847 5.24506 7.37839C5.55137 7.07208 5.96681 6.9 6.4 6.9C6.83319 6.9 7.24863 7.07208 7.55494 7.37839C7.86125 7.6847 8.03333 8.10015 8.03333 8.53333C8.03333 8.96652 7.86125 9.38196 7.55494 9.68827C7.24863 9.99458 6.83319 10.1667 6.4 10.1667C5.96681 10.1667 5.55137 9.99458 5.24506 9.68827C4.93875 9.38196 4.76667 8.96652 4.76667 8.53333Z" stroke="black"/>
</svg>
