<svg width="32" height="32" viewBox="0 0 32 32" fill="none" xmlns="http://www.w3.org/2000/svg">
<path d="M16 16L16.1373 15.5192C15.9627 15.4694 15.7748 15.518 15.6464 15.6464C15.518 15.7748 15.4693 15.9628 15.5192 16.1374L16 16ZM20.2666 30.9333L19.7859 31.0707C19.844 31.2741 20.0239 31.4189 20.235 31.4323C20.4462 31.4457 20.6429 31.3248 20.7262 31.1303L20.2666 30.9333ZM30.9333 20.2667L31.1303 20.7262C31.3247 20.6429 31.4457 20.4462 31.4323 20.235C31.4189 20.0239 31.2741 19.844 31.0707 19.7859L30.9333 20.2667ZM23.4666 23.4667L23.2697 23.0071C23.1517 23.0577 23.0577 23.1517 23.0071 23.2697L23.4666 23.4667ZM1.06665 1.06667V0.566666H0.56665V1.06667H1.06665ZM28.8 1.06667H29.3V0.566666H28.8V1.06667ZM1.06665 28.8H0.56665V29.3H1.06665V28.8ZM15.5192 16.1374L19.7859 31.0707L20.7474 30.796L16.4807 15.8626L15.5192 16.1374ZM31.0707 19.7859L16.1373 15.5192L15.8626 16.4808L30.796 20.7474L31.0707 19.7859ZM20.7262 31.1303L23.9262 23.6636L23.0071 23.2697L19.8071 30.7364L20.7262 31.1303ZM23.6636 23.9262L31.1303 20.7262L30.7364 19.8071L23.2697 23.0071L23.6636 23.9262ZM1.06665 1.56667H28.8V0.566666H1.06665V1.56667ZM28.3 1.06667V14.9333H29.3V1.06667H28.3ZM0.56665 1.06667V28.8H1.56665V1.06667H0.56665ZM1.06665 29.3H14.9333V28.3H1.06665V29.3Z" fill="black"/>
</svg>
