<svg width="32" height="32" viewBox="0 0 32 32" fill="none" xmlns="http://www.w3.org/2000/svg">
<path d="M9.06663 2.13333H4.11425C3.0202 2.13333 2.1333 3.02023 2.1333 4.11428V9.06666M22.9333 2.13333H27.8857C28.9797 2.13333 29.8666 3.02023 29.8666 4.11428V9.06666M2.1333 22.9333V27.8857C2.1333 28.9798 3.0202 29.8667 4.11425 29.8667H9.06663M29.8666 22.9333V27.8857C29.8666 28.9798 28.9797 29.8667 27.8857 29.8667H22.9333M16 23.4667C11.8762 23.4667 8.5333 20.1237 8.5333 16C8.5333 11.8763 11.8762 8.53333 16 8.53333C20.1237 8.53333 23.4666 11.8763 23.4666 16C23.4666 20.1237 20.1237 23.4667 16 23.4667Z" stroke="black"/>
</svg>
