<svg width="162" height="76" viewBox="0 0 162 76" fill="none" xmlns="http://www.w3.org/2000/svg">
<path d="M103.708 36.9381C103.659 36.9163 98.8212 34.7348 92.5895 30.6933C92.386 30.3307 92.1622 29.9744 91.9114 29.6292C91.7261 29.3741 91.5276 29.1255 91.3168 28.8844C91.629 28.813 91.9356 28.7285 92.2354 28.6309C98.185 26.698 101.102 19.8506 101.224 19.5599C101.501 18.8965 101.252 18.1305 100.638 17.7566C100.403 17.614 95.5297 14.6961 90.3445 15.2221C92.9469 11.8706 95.0277 8.43525 96.5555 4.96148C96.5693 4.93024 96.5821 4.89842 96.5934 4.86621C97.4939 2.35194 97.3835 0.882138 96.2464 0.240472C94.7974 -0.57757 93.3235 0.739912 91.1096 3.45637C90.602 4.07941 90.6953 4.99602 91.3186 5.5038C91.8264 5.91767 92.5293 5.93164 93.0464 5.58588C91.5326 8.60891 89.5645 11.603 87.1696 14.5347C86.8576 8.54391 81.5675 3.93175 81.3358 3.73287C80.7904 3.26447 79.9848 3.26447 79.4395 3.73287C79.2131 3.92748 74.1593 8.33668 73.6374 14.1274C71.3912 11.3261 69.5349 8.4692 68.0909 5.58568C68.6084 5.93261 69.3114 5.91806 69.8194 5.504C70.4424 4.99621 70.5359 4.0796 70.0284 3.45656C67.815 0.739718 66.341 -0.576212 64.8917 0.240472C63.7547 0.882332 63.6441 2.35213 64.5442 4.86641C64.5557 4.89861 64.5685 4.93044 64.5823 4.96168C66.1178 8.45252 68.2112 11.9044 70.8318 15.272C65.4998 14.5461 60.3783 17.6109 60.1381 17.757C59.524 18.1311 59.2751 18.8973 59.5522 19.5607C59.6734 19.8512 62.5915 26.6984 68.5411 28.6311C68.8411 28.7287 69.1474 28.8131 69.4598 28.8845C69.2491 29.1257 69.051 29.3741 68.8655 29.6294C68.5326 30.0874 68.245 30.5637 67.9945 31.0509C62.0468 34.8542 57.4762 36.9175 57.4298 36.9383C56.6966 37.2668 56.3683 38.1275 56.6966 38.8609C56.9385 39.4013 57.4694 39.7221 58.0257 39.7221C58.2244 39.7221 58.4264 39.6811 58.6196 39.5948C58.7842 39.521 62.0329 38.0565 66.6813 35.2836C66.1485 38.8737 66.8775 42.0508 66.925 42.2513C67.0818 42.9118 67.6716 43.3708 68.3401 43.3708C68.3795 43.3708 68.4192 43.3693 68.4592 43.3662C68.773 43.3406 76.1862 42.6814 79.8637 37.6197C80.049 37.3647 80.2238 37.0995 80.3881 36.8246C80.5525 37.0995 80.7273 37.3646 80.9126 37.6197C84.5905 42.6818 92.0037 43.3406 92.3175 43.3662C93.0367 43.4221 93.686 42.9508 93.8517 42.2515C93.9002 42.0464 94.659 38.7311 94.0564 35.0435C98.9136 37.9699 102.345 39.5173 102.519 39.595C102.712 39.6813 102.914 39.7222 103.113 39.7222C103.669 39.7222 104.2 39.4017 104.442 38.8611C104.77 38.1275 104.442 37.2664 103.708 36.9381ZM97.9411 19.6323C96.9442 21.4372 94.7112 24.7666 91.3364 25.8629C90.2547 26.2143 89.0362 26.3359 87.7173 26.2248C87.0423 26.1706 86.4196 26.5827 86.2111 27.2252C86.1622 27.3756 86.14 27.5294 86.1408 27.6812L85.8401 25.9283L89.1805 22.6724C89.5771 22.2857 89.7198 21.7073 89.5486 21.1805C89.3775 20.6535 88.9221 20.2697 88.3737 20.1901L86.3059 19.8896C87.1537 19.24 88.0348 18.7617 88.9337 18.4696C92.293 17.3784 96.0697 18.7607 97.9411 19.6323ZM82.8421 25.6663L83.2614 28.1119L81.0653 26.9572C80.8532 26.8458 80.6208 26.7902 80.3881 26.7902C80.1555 26.7902 79.9229 26.8458 79.711 26.9572L77.5153 28.1119L77.9346 25.6663C78.0155 25.1942 77.8589 24.7126 77.5161 24.3781L75.7393 22.6464L78.1946 22.2896C78.6686 22.2209 79.0784 21.9228 79.2903 21.4935L80.3881 19.2685L81.4862 21.4935C81.6983 21.923 82.1079 22.2207 82.5819 22.2896L85.0372 22.6464L83.2604 24.3781C82.9176 24.7126 82.761 25.1942 82.8421 25.6663ZM80.3903 6.87755C81.7988 8.38344 84.2748 11.5361 84.2748 15.0851C84.2748 16.2228 84.014 17.4188 83.5 18.6402C83.4702 18.711 83.448 18.7834 83.4302 18.8558L81.6932 15.336C81.448 14.8393 80.9421 14.5248 80.3881 14.5248C79.8342 14.5248 79.3283 14.8393 79.0831 15.336L77.3459 18.8566C77.3244 18.7683 77.2966 18.6811 77.2584 18.5975C76.756 17.3908 76.5015 16.2094 76.5015 15.0851C76.5015 11.5526 78.983 8.3881 80.3903 6.87755ZM69.4402 25.8631C66.0812 24.7718 63.8383 21.4339 62.8363 19.6282C64.7039 18.7543 68.4674 17.3734 71.8428 18.47C72.7419 18.7623 73.6232 19.2402 74.4709 19.8896L72.4027 20.1901C71.8546 20.2697 71.399 20.6537 71.2279 21.1805C71.0567 21.7073 71.1995 22.2855 71.5959 22.6724L74.9364 25.9283L74.6372 27.6734C74.6366 26.9417 74.092 26.3214 73.363 26.2302C73.2522 26.2168 73.1412 26.2158 73.0316 26.2267C71.7225 26.335 70.514 26.2121 69.4402 25.8631ZM91.2344 40.2659C89.2098 39.8753 85.3534 38.7804 83.2672 35.9087C82.6079 35.001 82.1201 33.8989 81.8174 32.6323C81.7144 32.102 81.3183 31.6518 80.7632 31.5038C80.0032 31.3022 79.2199 31.7397 78.994 32.4928C78.9837 32.5271 78.9746 32.5615 78.9671 32.5964C78.6646 33.8786 78.174 34.9929 77.5087 35.9087C75.4335 38.7651 71.5692 39.867 69.5413 40.2626C69.2906 38.2107 69.1447 34.1954 71.2197 31.3398C71.8792 30.4318 72.7778 29.6267 73.891 28.9466C74.2008 28.7738 74.437 28.4901 74.5548 28.1519L74.1475 30.5263C74.0538 31.0723 74.2784 31.6239 74.7265 31.9497C75.1747 32.2749 75.7688 32.3178 76.2589 32.0603L80.3874 29.8894L84.5162 32.0603C84.7292 32.1722 84.9617 32.2273 85.1932 32.2273H85.1974C86.0011 32.2272 86.6523 31.5758 86.6523 30.7721C86.6523 30.6501 86.6374 30.5317 86.609 30.4184L86.2204 28.1529C86.329 28.4645 86.5421 28.7394 86.8407 28.9201C87.9737 29.6056 88.8872 30.4197 89.5558 31.3398C91.6329 34.1976 91.4853 38.2165 91.2344 40.2659Z" fill="#095D90"/>
<path d="M4.48 57.056V62.656H12V66.208H4.48V72.128H12.96V75.776H0V53.408H12.96V57.056H4.48Z" fill="#095D90"/>
<path d="M22.7913 72.224H30.1513V75.776H18.3112V53.44H22.7913V72.224Z" fill="#095D90"/>
<path d="M38.7588 57.056V62.656H46.2788V66.208H38.7588V72.128H47.2388V75.776H34.2787V53.408H47.2388V57.056H38.7588Z" fill="#095D90"/>
<path d="M76.942 53.44V75.776H72.462V61.248L66.478 75.776H63.086L57.07 61.248V75.776H52.59V53.44H57.678L64.782 70.048L71.886 53.44H76.942Z" fill="#095D90"/>
<path d="M87.1312 57.056V62.656H94.6513V66.208H87.1312V72.128H95.6113V75.776H82.6513V53.408H95.6113V57.056H87.1312Z" fill="#095D90"/>
<path d="M120.067 75.776H115.586L105.442 60.448V75.776H100.963V53.408H105.442L115.586 68.768V53.408H120.067V75.776Z" fill="#095D90"/>
<path d="M140.974 53.44V57.056H135.022V75.776H130.542V57.056H124.59V53.44H140.974Z" fill="#095D90"/>
<path d="M153.234 76C151.677 76 150.269 75.7333 149.01 75.2C147.773 74.6667 146.792 73.8987 146.066 72.896C145.341 71.8933 144.968 70.7093 144.947 69.344H149.747C149.811 70.2613 150.131 70.9867 150.707 71.52C151.304 72.0533 152.115 72.32 153.139 72.32C154.184 72.32 155.005 72.0747 155.603 71.584C156.2 71.072 156.499 70.4107 156.499 69.6C156.499 68.9387 156.296 68.3947 155.891 67.968C155.485 67.5413 154.973 67.2107 154.354 66.976C153.757 66.72 152.925 66.4427 151.859 66.144C150.408 65.7173 149.224 65.3013 148.307 64.896C147.411 64.4693 146.632 63.84 145.971 63.008C145.331 62.1547 145.01 61.024 145.01 59.616C145.01 58.2933 145.341 57.1413 146.003 56.16C146.664 55.1787 147.592 54.432 148.786 53.92C149.981 53.3867 151.347 53.12 152.883 53.12C155.187 53.12 157.053 53.6853 158.483 54.816C159.933 55.9253 160.733 57.4827 160.883 59.488H155.954C155.912 58.72 155.581 58.0907 154.962 57.6C154.365 57.088 153.565 56.832 152.562 56.832C151.688 56.832 150.984 57.056 150.451 57.504C149.939 57.952 149.682 58.6027 149.682 59.456C149.682 60.0533 149.875 60.5547 150.259 60.96C150.664 61.344 151.154 61.664 151.73 61.92C152.328 62.1547 153.16 62.432 154.227 62.752C155.677 63.1787 156.861 63.6053 157.779 64.032C158.696 64.4587 159.485 65.0987 160.147 65.952C160.808 66.8053 161.139 67.9253 161.139 69.312C161.139 70.5067 160.829 71.616 160.211 72.64C159.592 73.664 158.685 74.4853 157.491 75.104C156.296 75.7013 154.877 76 153.234 76Z" fill="#095D90"/>
</svg>
