<svg width="269" height="166" viewBox="0 0 269 166" fill="none" xmlns="http://www.w3.org/2000/svg">
<g clip-path="url(#clip0)">
<rect width="268.577" height="165.991" fill="#095D90"/>
</g>
<path d="M114 71C114 68.8783 114.843 66.8434 116.343 65.3431C117.843 63.8429 119.878 63 122 63H146C148.122 63 150.157 63.8429 151.657 65.3431C153.157 66.8434 154 68.8783 154 71V95C154 97.1217 153.157 99.1566 151.657 100.657C150.157 102.157 148.122 103 146 103H122C119.878 103 117.843 102.157 116.343 100.657C114.843 99.1566 114 97.1217 114 95V71Z" stroke="#BFDBF7" stroke-width="2" stroke-linecap="round" stroke-linejoin="round"/>
<path d="M127 81C129.761 81 132 78.7614 132 76C132 73.2386 129.761 71 127 71C124.239 71 122 73.2386 122 76C122 78.7614 124.239 81 127 81Z" stroke="#BFDBF7" stroke-width="2" stroke-linecap="round" stroke-linejoin="round"/>
<path d="M139.052 84.242L122 103H146.266C148.317 103 150.284 102.185 151.735 100.735C153.185 99.2844 154 97.3172 154 95.266V95C154 94.068 153.65 93.71 153.02 93.02L144.96 84.23C144.584 83.8202 144.127 83.4933 143.618 83.2699C143.109 83.0466 142.559 82.9319 142.003 82.933C141.447 82.9341 140.898 83.0511 140.39 83.2765C139.882 83.5019 139.426 83.8307 139.052 84.242V84.242Z" stroke="#BFDBF7" stroke-width="2" stroke-linecap="round" stroke-linejoin="round"/>
<defs>
<clipPath id="clip0">
<rect width="268.577" height="165.991" fill="white"/>
</clipPath>
</defs>
</svg>
